<svg width="188" height="64" viewBox="0 0 188 64" fill="none" xmlns="http://www.w3.org/2000/svg">
<defs>
    <linearGradient id="paint0_linear" x1="-2.66594e-07" y1="-3.31579" x2="172.15" y2="89.5426" gradientUnits="userSpaceOnUse">
        <stop offset="0%" stop-color="#53E88B"/>
        <stop offset="100%" stop-color="#15BE77"/>
    </linearGradient>
</defs>
<path d="M22.08 17.48H12.04C10.8667 17.48 10.04 17.7067 9.56 18.16C9.10667 18.6133 8.88 19.4 8.88 20.52V24.48H19.32L18.92 29.44H8.88V41H3.32V18.32C3.32 16.2133 3.77333 14.72 4.68 13.84C5.61333 12.96 7.2 12.52 9.44 12.52H22.08V17.48ZM39.3738 30.68V28.6C39.3738 26.6267 39.0804 25.12 38.4938 24.08C37.9338 23.04 36.7471 22.52 34.9338 22.52C32.0004 22.52 30.5338 24.4933 30.5338 28.44V30.52C30.5338 34.76 32.0004 36.88 34.9338 36.88C36.8271 36.88 38.0671 36.1733 38.6538 34.76C39.1338 33.64 39.3738 32.28 39.3738 30.68ZM44.5738 29.48C44.5738 34.4133 43.6404 37.72 41.7738 39.4C40.2004 40.84 37.9204 41.56 34.9338 41.56C31.1204 41.56 28.5471 40.44 27.2138 38.2C25.9604 36.1467 25.3338 33.24 25.3338 29.48C25.3338 25.96 25.9604 23.2 27.2138 21.2C28.6004 18.96 31.1204 17.84 34.7738 17.84C38.4538 17.84 41.0004 18.8267 42.4138 20.8C43.8538 22.7467 44.5738 25.64 44.5738 29.48ZM61.5925 30.68V28.6C61.5925 26.6267 61.2992 25.12 60.7125 24.08C60.1525 23.04 58.9658 22.52 57.1525 22.52C54.2192 22.52 52.7525 24.4933 52.7525 28.44V30.52C52.7525 34.76 54.2192 36.88 57.1525 36.88C59.0458 36.88 60.2858 36.1733 60.8725 34.76C61.3525 33.64 61.5925 32.28 61.5925 30.68ZM66.7925 29.48C66.7925 34.4133 65.8592 37.72 63.9925 39.4C62.4192 40.84 60.1392 41.56 57.1525 41.56C53.3392 41.56 50.7658 40.44 49.4325 38.2C48.1792 36.1467 47.5525 33.24 47.5525 29.48C47.5525 25.96 48.1792 23.2 49.4325 21.2C50.8192 18.96 53.3392 17.84 56.9925 17.84C60.6725 17.84 63.2192 18.8267 64.6325 20.8C66.0725 22.7467 66.7925 25.64 66.7925 29.48ZM88.0513 41H84.5713L82.9713 38.24L77.4113 41.24C74.3179 41.24 72.2379 40.12 71.1712 37.88C70.6379 36.7867 70.2646 35.6133 70.0513 34.36C69.8646 33.08 69.7713 31.76 69.7713 30.4C69.7713 29.0133 69.7846 28 69.8113 27.36C69.8379 26.6933 69.9046 25.9333 70.0113 25.08C70.1179 24.2 70.2646 23.4667 70.4513 22.88C70.6646 22.2933 70.9579 21.6933 71.3313 21.08C71.7046 20.44 72.1579 19.9333 72.6913 19.56C73.8913 18.7333 75.4513 18.32 77.3713 18.32H82.8513V10.92H88.0513V41ZM82.8513 33.72V23H78.8913C77.4246 23 76.3979 23.56 75.8113 24.68C75.2513 25.8 74.9713 27.48 74.9713 29.72C74.9713 31.9333 75.2379 33.4933 75.7713 34.4C76.3313 35.3067 77.3713 35.76 78.8913 35.76L82.8513 33.72ZM116.973 12.52V38.12C116.973 39 116.706 39.76 116.173 40.4C115.64 41.0133 115.013 41.32 114.293 41.32C112.453 41.32 110.946 40.2533 109.773 38.12L99.9331 22.72V41H94.3731V12.52H99.7331L111.413 31.16V12.52H116.973ZM125.482 9.44C126.735 9.44 127.549 9.64 127.922 10.04C128.295 10.4133 128.482 11.2267 128.482 12.48C128.482 13.7067 128.282 14.52 127.882 14.92C127.509 15.2933 126.695 15.48 125.442 15.48C124.215 15.48 123.402 15.28 123.002 14.88C122.629 14.48 122.442 13.6667 122.442 12.44C122.442 11.2133 122.629 10.4133 123.002 10.04C123.402 9.64 124.229 9.44 125.482 9.44ZM128.042 41H122.842V19H128.042V41ZM152.078 41H146.878V26.4C146.878 25.0933 146.611 24.2 146.078 23.72C145.544 23.24 144.798 23 143.838 23L139.158 24.96V41H133.958V18.16H137.838L139.038 20.88L145.438 17.92C147.224 17.92 148.771 18.5867 150.078 19.92C151.411 21.2267 152.078 23.1467 152.078 25.68V41ZM162.987 19V41.84C162.987 43.4667 162.467 44.8667 161.427 46.04C160.414 47.2133 158.907 47.8 156.907 47.8H153.947V43.4H155.947C157.174 43.4 157.787 42.7733 157.787 41.52V19H162.987ZM160.427 9.44C161.681 9.44 162.494 9.64 162.867 10.04C163.241 10.4133 163.427 11.2267 163.427 12.48C163.427 13.7067 163.227 14.52 162.827 14.92C162.454 15.2933 161.641 15.48 160.387 15.48C159.161 15.48 158.347 15.28 157.947 14.88C157.574 14.48 157.387 13.6667 157.387 12.44C157.387 11.2133 157.574 10.4133 157.947 10.04C158.347 9.64 159.174 9.44 160.427 9.44ZM185.023 41H181.543L179.943 38.24L174.383 41.24C171.289 41.24 169.209 40.12 168.143 37.88C167.609 36.7867 167.236 35.6133 167.023 34.36C166.836 33.08 166.743 31.76 166.743 30.4C166.743 29.0133 166.756 28 166.783 27.36C166.809 26.6933 166.876 25.9333 166.983 25.08C167.089 24.2 167.236 23.4667 167.423 22.88C167.636 22.2933 167.929 21.6933 168.303 21.08C168.676 20.44 169.129 19.9333 169.663 19.56C170.863 18.7333 172.423 18.32 174.343 18.32H179.823L185.023 18V41ZM179.823 33.72V23H175.863C174.396 23 173.369 23.56 172.783 24.68C172.223 25.8 171.943 27.48 171.943 29.72C171.943 31.9333 172.209 33.4933 172.743 34.4C173.303 35.3067 174.343 35.76 175.863 35.76L179.823 33.72Z" fill="url(#paint0_linear)"/>
<path d="M17.1364 61C20.017 61 21.7251 59.218 21.7251 56.2635C21.7251 53.3182 20.017 51.5455 17.201 51.5455H13.9325V61H17.1364ZM15.6452 59.5181V53.0273H17.104C19.0245 53.0273 20.0263 54.0984 20.0263 56.2635C20.0263 58.4379 19.0245 59.5181 17.0533 59.5181H15.6452ZM27.4178 61.1385C29.0705 61.1385 30.2061 60.3306 30.5016 59.098L28.9412 58.9226C28.715 59.5227 28.161 59.8366 27.4409 59.8366C26.3606 59.8366 25.6451 59.1257 25.6312 57.9116H30.5708V57.3991C30.5708 54.9109 29.0751 53.8168 27.3301 53.8168C25.2988 53.8168 23.9739 55.3079 23.9739 57.4961C23.9739 59.7212 25.2804 61.1385 27.4178 61.1385ZM25.6358 56.7852C25.6866 55.8803 26.356 55.1186 27.3532 55.1186C28.3134 55.1186 28.9597 55.8203 28.9689 56.7852H25.6358ZM34.6558 51.5455H32.9846V61H34.6558V51.5455ZM37.3743 61H39.0455V53.9091H37.3743V61ZM38.2145 52.9027C38.7454 52.9027 39.1793 52.4964 39.1793 51.9979C39.1793 51.4947 38.7454 51.0884 38.2145 51.0884C37.679 51.0884 37.245 51.4947 37.245 51.9979C37.245 52.4964 37.679 52.9027 38.2145 52.9027ZM44.9031 61.1385C46.5558 61.1385 47.6915 60.3306 47.9869 59.098L46.4266 58.9226C46.2004 59.5227 45.6464 59.8366 44.9262 59.8366C43.846 59.8366 43.1304 59.1257 43.1166 57.9116H48.0562V57.3991C48.0562 54.9109 46.5605 53.8168 44.8154 53.8168C42.7842 53.8168 41.4593 55.3079 41.4593 57.4961C41.4593 59.7212 42.7657 61.1385 44.9031 61.1385ZM43.1212 56.7852C43.172 55.8803 43.8414 55.1186 44.8385 55.1186C45.7987 55.1186 46.445 55.8203 46.4543 56.7852H43.1212ZM56.6007 53.9091H54.8233L53.1891 59.1765H53.1152L51.4856 53.9091H49.7037L52.2289 61H54.0755L56.6007 53.9091ZM61.6551 61.1385C63.3078 61.1385 64.4434 60.3306 64.7389 59.098L63.1785 58.9226C62.9523 59.5227 62.3983 59.8366 61.6782 59.8366C60.5979 59.8366 59.8824 59.1257 59.8685 57.9116H64.8082V57.3991C64.8082 54.9109 63.3124 53.8168 61.5674 53.8168C59.5361 53.8168 58.2112 55.3079 58.2112 57.4961C58.2112 59.7212 59.5177 61.1385 61.6551 61.1385ZM59.8731 56.7852C59.9239 55.8803 60.5933 55.1186 61.5905 55.1186C62.5507 55.1186 63.197 55.8203 63.2062 56.7852H59.8731ZM67.2219 61H68.8931V56.8313C68.8931 55.9311 69.5717 55.294 70.4904 55.294C70.772 55.294 71.1229 55.3448 71.266 55.391V53.8537C71.1136 53.826 70.8505 53.8075 70.6658 53.8075C69.8533 53.8075 69.1747 54.2692 68.9162 55.0909H68.8423V53.9091H67.2219V61ZM77.6747 61H79.3874V56.9837H83.3161V55.5479H79.3874V52.9812H83.7315V51.5455H77.6747V61ZM88.195 61.1431C89.3076 61.1431 89.9724 60.6214 90.2771 60.0259H90.3325V61H91.939V56.2543C91.939 54.38 90.411 53.8168 89.0583 53.8168C87.5672 53.8168 86.4223 54.4815 86.053 55.7741L87.6134 55.9957C87.7796 55.511 88.2504 55.0955 89.0676 55.0955C89.8431 55.0955 90.2678 55.4925 90.2678 56.1896V56.2173C90.2678 56.6974 89.7646 56.7205 88.5136 56.8544C87.1379 57.0021 85.8222 57.413 85.8222 59.0103C85.8222 60.4045 86.8424 61.1431 88.195 61.1431ZM88.629 59.9151C87.9319 59.9151 87.4333 59.5966 87.4333 58.9826C87.4333 58.3409 87.9919 58.0732 88.7398 57.967C89.1784 57.907 90.0555 57.7962 90.2725 57.6207V58.4563C90.2725 59.2457 89.6354 59.9151 88.629 59.9151ZM100.699 53.9091H98.922L97.2877 59.1765H97.2139L95.5843 53.9091H93.8023L96.3275 61H98.1741L100.699 53.9091ZM105.708 61.1385C107.785 61.1385 109.105 59.6751 109.105 57.4822C109.105 55.2848 107.785 53.8168 105.708 53.8168C103.63 53.8168 102.31 55.2848 102.31 57.4822C102.31 59.6751 103.63 61.1385 105.708 61.1385ZM105.717 59.7997C104.567 59.7997 104.004 58.7749 104.004 57.4776C104.004 56.1804 104.567 55.1417 105.717 55.1417C106.848 55.1417 107.411 56.1804 107.411 57.4776C107.411 58.7749 106.848 59.7997 105.717 59.7997ZM111.524 61H113.195V56.8313C113.195 55.9311 113.873 55.294 114.792 55.294C115.074 55.294 115.425 55.3448 115.568 55.391V53.8537C115.415 53.826 115.152 53.8075 114.968 53.8075C114.155 53.8075 113.476 54.2692 113.218 55.0909H113.144V53.9091H111.524V61ZM117.678 61H119.349V53.9091H117.678V61ZM118.518 52.9027C119.049 52.9027 119.483 52.4964 119.483 51.9979C119.483 51.4947 119.049 51.0884 118.518 51.0884C117.983 51.0884 117.549 51.4947 117.549 51.9979C117.549 52.4964 117.983 52.9027 118.518 52.9027ZM125.608 53.9091H124.21V52.2102H122.539V53.9091H121.532V55.2017H122.539V59.1442C122.529 60.4783 123.499 61.1339 124.754 61.0969C125.23 61.0831 125.558 60.9908 125.738 60.9308L125.456 59.6243C125.364 59.6474 125.175 59.6889 124.967 59.6889C124.547 59.6889 124.21 59.5412 124.21 58.8672V55.2017H125.608V53.9091ZM131.069 61.1385C132.722 61.1385 133.858 60.3306 134.153 59.098L132.593 58.9226C132.366 59.5227 131.812 59.8366 131.092 59.8366C130.012 59.8366 129.296 59.1257 129.283 57.9116H134.222V57.3991C134.222 54.9109 132.726 53.8168 130.981 53.8168C128.95 53.8168 127.625 55.3079 127.625 57.4961C127.625 59.7212 128.932 61.1385 131.069 61.1385ZM129.287 56.7852C129.338 55.8803 130.007 55.1186 131.005 55.1186C131.965 55.1186 132.611 55.8203 132.62 56.7852H129.287ZM140.934 61H142.647V56.9837H146.576V55.5479H142.647V52.9812H146.991V51.5455H140.934V61ZM152.05 61.1385C154.128 61.1385 155.448 59.6751 155.448 57.4822C155.448 55.2848 154.128 53.8168 152.05 53.8168C149.973 53.8168 148.653 55.2848 148.653 57.4822C148.653 59.6751 149.973 61.1385 152.05 61.1385ZM152.06 59.7997C150.91 59.7997 150.347 58.7749 150.347 57.4776C150.347 56.1804 150.91 55.1417 152.06 55.1417C153.191 55.1417 153.754 56.1804 153.754 57.4776C153.754 58.7749 153.191 59.7997 152.06 59.7997ZM160.96 61.1385C163.037 61.1385 164.357 59.6751 164.357 57.4822C164.357 55.2848 163.037 53.8168 160.96 53.8168C158.882 53.8168 157.562 55.2848 157.562 57.4822C157.562 59.6751 158.882 61.1385 160.96 61.1385ZM160.969 59.7997C159.819 59.7997 159.256 58.7749 159.256 57.4776C159.256 56.1804 159.819 55.1417 160.969 55.1417C162.1 55.1417 162.663 56.1804 162.663 57.4776C162.663 58.7749 162.1 59.7997 160.969 59.7997ZM169.407 61.1246C170.626 61.1246 171.175 60.3999 171.438 59.8828H171.54V61H173.183V51.5455H171.508V55.0817H171.438C171.184 54.5692 170.663 53.8168 169.412 53.8168C167.773 53.8168 166.485 55.1001 166.485 57.4638C166.485 59.7997 167.736 61.1246 169.407 61.1246ZM169.873 59.7536C168.77 59.7536 168.188 58.7841 168.188 57.4545C168.188 56.1342 168.761 55.1879 169.873 55.1879C170.949 55.1879 171.54 56.0788 171.54 57.4545C171.54 58.8303 170.94 59.7536 169.873 59.7536Z" fill="#09051C"/>

</svg>
