<svg width="21" height="21" viewBox="0 0 21 21" fill="none" xmlns="http://www.w3.org/2000/svg">
    <defs>
        <linearGradient id="paint0_linear_192:2485" x1="3.91052" y1="16.8826" x2="14.9207"
            y2="24.9221" gradientUnits="userSpaceOnUse">
            <stop offset="0" stop-color="#53E88B" />
            <stop offset="0.489583" stop-color="#35D381" />
            <stop offset="1" stop-color="#15BE77" />
        </linearGradient>
        <linearGradient id="paint1_linear_192:2485" x1="-2.83832e-08" y1="-0.42058" x2="22.6895"
            y2="4.27392" gradientUnits="userSpaceOnUse">
            <stop offset="0" stop-color="#53E88B" />
            <stop offset="0.489583" stop-color="#35D381" />
            <stop offset="1" stop-color="#15BE77" />
        </linearGradient>
    </defs>
    <path opacity="0.4" fill-rule="evenodd" clip-rule="evenodd"
        d="M3.91052 18.5886C3.91052 17.7486 4.59052 17.0686 5.43052 17.0686C6.26052 17.0686 6.94052 17.7486 6.94052 18.5886C6.94052 19.4186 6.26052 20.0986 5.43052 20.0986C4.59052 20.0986 3.91052 19.4186 3.91052 18.5886ZM15.1605 18.5886C15.1605 17.7486 15.8405 17.0686 16.6805 17.0686C17.5105 17.0686 18.1905 17.7486 18.1905 18.5886C18.1905 19.4186 17.5105 20.0986 16.6805 20.0986C15.8405 20.0986 15.1605 19.4186 15.1605 18.5886Z"
        fill="url(#paint0_linear_192:2485)" />
    <path fill-rule="evenodd" clip-rule="evenodd"
        d="M18.1907 4.34909C18.8007 4.34909 19.2007 4.55909 19.6007 5.01909C20.0007 5.47909 20.0707 6.13909 19.9807 6.73809L19.0307 13.2981C18.8507 14.5591 17.7707 15.4881 16.5007 15.4881H5.59074C4.26074 15.4881 3.16074 14.4681 3.05074 13.1491L2.13074 2.24809L0.620742 1.98809C0.220742 1.91809 -0.0592579 1.52809 0.0107421 1.12809C0.0807421 0.718086 0.470742 0.448086 0.880742 0.508086L3.26574 0.868086C3.60574 0.929086 3.85574 1.20809 3.88574 1.54809L4.07574 3.78809C4.10574 4.10909 4.36574 4.34909 4.68574 4.34909H18.1907ZM12.1307 9.54809H14.9007C15.3207 9.54809 15.6507 9.20809 15.6507 8.79809C15.6507 8.37809 15.3207 8.04809 14.9007 8.04809H12.1307C11.7107 8.04809 11.3807 8.37809 11.3807 8.79809C11.3807 9.20809 11.7107 9.54809 12.1307 9.54809Z"
        fill="url(#paint1_linear_192:2485)" />
</svg>
