<svg width="34" height="28" viewBox="0 0 34 28" fill="none" xmlns="http://www.w3.org/2000/svg">
    <defs>
        <linearGradient id="paint0_linear_169:24232" x1="0.333252" y1="-0.970739" x2="38.3126"
            y2="6.3847" gradientUnits="userSpaceOnUse">
            <stop offset="0" stop-color="#53E88B" />
            <stop offset="0.489583" stop-color="#35D381" />
            <stop offset="1" stop-color="#15BE77" />
        </linearGradient>
    </defs>
    <path
        d="M30.3333 0.666687H3.66659C1.83325 0.666687 0.349919 2.16669 0.349919 4.00002L0.333252 24C0.333252 25.8334 1.83325 27.3334 3.66659 27.3334H30.3333C32.1666 27.3334 33.6666 25.8334 33.6666 24V4.00002C33.6666 2.16669 32.1666 0.666687 30.3333 0.666687ZM29.6666 7.75002L17.8833 15.1167C17.3499 15.45 16.6499 15.45 16.1166 15.1167L4.33325 7.75002C4.16613 7.6562 4.01978 7.52946 3.90307 7.37744C3.78635 7.22543 3.70169 7.05132 3.65421 6.86564C3.60673 6.67996 3.59742 6.48658 3.62685 6.2972C3.65627 6.10782 3.72381 5.92638 3.82539 5.76385C3.92696 5.60133 4.06046 5.46111 4.2178 5.35168C4.37513 5.24224 4.55304 5.16587 4.74074 5.12718C4.92845 5.0885 5.12206 5.0883 5.30984 5.1266C5.49763 5.1649 5.67569 5.24091 5.83325 5.35002L16.9999 12.3334L28.1666 5.35002C28.3241 5.24091 28.5022 5.1649 28.69 5.1266C28.8778 5.0883 29.0714 5.0885 29.2591 5.12718C29.4468 5.16587 29.6247 5.24224 29.782 5.35168C29.9394 5.46111 30.0729 5.60133 30.1745 5.76385C30.276 5.92638 30.3436 6.10782 30.373 6.2972C30.4024 6.48658 30.3931 6.67996 30.3456 6.86564C30.2982 7.05132 30.2135 7.22543 30.0968 7.37744C29.9801 7.52946 29.8337 7.6562 29.6666 7.75002V7.75002Z"
        fill="url(#paint0_linear_169:24232)" />
</svg>
