<svg width="20" height="20" viewBox="0 0 20 20" fill="none" xmlns="http://www.w3.org/2000/svg">
    <defs>
        <linearGradient id="paint0_linear_192:2307" x1="0.5" y1="-1.22807" x2="22.484" y2="2.00772"
            gradientUnits="userSpaceOnUse">
            <stop offset="0" stop-color="#53E88B" />
            <stop offset="0.489583" stop-color="#35D381" />
            <stop offset="1" stop-color="#15BE77" />
        </linearGradient>
    </defs>
    <path
        d="M7.14373 18.7821V15.7152C7.14372 14.9381 7.77567 14.3067 8.55844 14.3018H11.4326C12.2189 14.3018 12.8563 14.9346 12.8563 15.7152V18.7732C12.8562 19.4473 13.404 19.9951 14.0829 20H16.0438C16.9596 20.0023 17.8388 19.6428 18.4872 19.0007C19.1356 18.3586 19.5 17.4868 19.5 16.5775V7.86585C19.5 7.13139 19.1721 6.43471 18.6046 5.9635L11.943 0.674268C10.7785 -0.250877 9.11537 -0.220992 7.98539 0.745384L1.46701 5.9635C0.872741 6.42082 0.517552 7.11956 0.5 7.86585V16.5686C0.5 18.4637 2.04738 20 3.95617 20H5.87229C6.19917 20.0023 6.51349 19.8751 6.74547 19.6464C6.97746 19.4178 7.10793 19.1067 7.10792 18.7821H7.14373Z"
        fill="url(#paint0_linear_192:2307)" />
</svg>
