<svg width="17" height="20" viewBox="0 0 17 20" fill="none" xmlns="http://www.w3.org/2000/svg">
<defs>
    <linearGradient id="paint0_linear_192:2672" x1="-2.41069e-08" y1="-1.22807" x2="19.7534"
        y2="1.37336" gradientUnits="userSpaceOnUse">
        <stop offset="0" stop-color="#53E88B" />
        <stop offset="0.489583" stop-color="#35D381" />
        <stop offset="1" stop-color="#15BE77" />
    </linearGradient>
</defs>
<path fill-rule="evenodd" clip-rule="evenodd" d="M0 8.31776C0 3.71789 3.84388 0 8.49345 0C13.1561 0 17 3.71789 17 8.31776C17 10.6357 16.157 12.7876 14.7695 14.6116C13.2388 16.6235 11.3522 18.3765 9.22854 19.7524C8.74251 20.0704 8.30387 20.0944 7.77045 19.7524C5.63474 18.3765 3.74809 16.6235 2.2305 14.6116C0.841983 12.7876 0 10.6357 0 8.31776ZM5.69423 8.57675C5.69423 10.1177 6.95166 11.3297 8.49345 11.3297C10.0362 11.3297 11.3058 10.1177 11.3058 8.57675C11.3058 7.0478 10.0362 5.77683 8.49345 5.77683C6.95166 5.77683 5.69423 7.0478 5.69423 8.57675Z" fill="url(#paint0_linear_192:2672)"/>
</svg>
